<svg width="22" height="23" viewBox="0 0 22 23" fill="none" xmlns="http://www.w3.org/2000/svg">
<path fill-rule="evenodd" clip-rule="evenodd" d="M10.8832 3.34259L10.2827 2.52402C7.86631 -0.294397 4.01281 -0.102337 1.59644 2.71608C-0.819932 5.53449 -0.354895 10.9834 2.06147 13.8018C3.04218 14.9457 4.51084 16.5295 6.46747 18.5532L8.11355 20.2423L9.96239 22.1141C10.4714 22.6266 11.2236 22.6344 11.7404 22.1327L13.2381 20.668C15.861 18.0825 17.8073 16.0461 19.0772 14.5587L19.4067 14.1666L19.7027 13.8018C21.9531 10.9712 22.5314 5.46894 20.1713 2.71608L20.0003 2.52402C17.5735 -0.100812 13.9141 -0.228852 11.5539 2.52402L10.8832 3.34259ZM2.56876 3.85006C4.47949 1.62142 7.43548 1.51693 9.27493 3.617L10.8269 5.73255L12.548 3.63203C14.3134 1.5735 17.1269 1.60326 19.0654 3.69993L19.2175 3.8712C20.8853 5.8169 20.6016 10.3125 18.6945 12.7113L18.4081 13.0642L18.0903 13.4422C17.0376 14.6744 15.4775 16.3253 13.4205 18.3813L12.3507 19.443L10.8608 20.8999L9.01494 19.0311L7.69382 17.6775C5.83224 15.7584 4.39616 14.2235 3.39067 13.0787L3.0338 12.6677C1.04322 10.3459 0.794252 5.91982 2.56876 3.85006Z" fill="#F9F9F9"/>
</svg>
