<svg width="22" height="22" viewBox="0 0 22 22" fill="none" xmlns="http://www.w3.org/2000/svg">
<path fill-rule="evenodd" clip-rule="evenodd" d="M22 11.0217C22 5.21074 17.0751 0.5 11 0.5C4.92487 0.5 0 5.21074 0 11.0217C0 16.8327 4.92487 21.5435 11 21.5435C12.326 21.5435 14.1475 21.0808 16.4645 20.1554L20.2113 21.5534L20.3223 21.588C20.8067 21.7094 21.3199 21.4669 21.5063 21.0099C21.5808 20.8272 21.5948 20.6269 21.5464 20.4363L20.5016 16.3266L20.6727 15.9351C21.5576 13.8734 22 12.2356 22 11.0217ZM19.2714 15.4221L18.9265 16.2031L19.862 19.883L16.4454 18.6082L15.5123 18.9784C13.5445 19.7379 12.0245 20.1087 11 20.1087C5.75329 20.1087 1.5 16.0403 1.5 11.0217C1.5 6.00315 5.75329 1.93478 11 1.93478C16.2467 1.93478 20.5 6.00315 20.5 11.0217C20.5 12.0218 20.097 13.5041 19.2714 15.4221Z" fill="#F9F9F9"/>
</svg>
