<svg width="22" height="22" viewBox="0 0 22 22" fill="none" xmlns="http://www.w3.org/2000/svg">
<path fill-rule="evenodd" clip-rule="evenodd" d="M22 11.4606C22 5.40723 17.0751 0.5 11 0.5C4.92487 0.5 0 5.40723 0 11.4606C0 17.514 4.92487 22.4212 11 22.4212C12.326 22.4212 14.1475 21.9392 16.4645 20.9753L20.2113 22.4316L20.3223 22.4676C20.8067 22.5941 21.3199 22.3415 21.5063 21.8654C21.5808 21.6751 21.5948 21.4664 21.5464 21.2679L20.5016 16.9867L20.6727 16.5789C21.5576 14.4312 22 12.7251 22 11.4606ZM19.2714 16.0446L18.9265 16.8581L19.862 20.6916L16.4454 19.3636L15.5123 19.7492C13.5445 20.5404 12.0245 20.9266 11 20.9266C5.75329 20.9266 1.5 16.6886 1.5 11.4606C1.5 6.23273 5.75329 1.99466 11 1.99466C16.2467 1.99466 20.5 6.23273 20.5 11.4606C20.5 12.5024 20.097 14.0466 19.2714 16.0446Z" fill="#262626"/>
</svg>
